<svg xmlns="http://www.w3.org/2000/svg" width="64.291" height="33.15" viewBox="0 0 64.291 33.15">
  <path id="Icon_awesome-gamepad" data-name="Icon awesome-gamepad" d="M46.726,6.75H15.575A15.575,15.575,0,1,0,26.692,33.228H35.6A15.573,15.573,0,1,0,46.726,6.75ZM24.92,24.272a1.172,1.172,0,0,1-1.168,1.168H18.69V30.5a1.172,1.172,0,0,1-1.168,1.168H13.628A1.172,1.172,0,0,1,12.46,30.5V25.44H7.4A1.172,1.172,0,0,1,6.23,24.272V20.378A1.172,1.172,0,0,1,7.4,19.21H12.46V14.148a1.172,1.172,0,0,1,1.168-1.168h3.894a1.172,1.172,0,0,1,1.168,1.168V19.21h5.062a1.172,1.172,0,0,1,1.168,1.168Zm17.912,6.619A4.673,4.673,0,1,1,47.5,26.219,4.674,4.674,0,0,1,42.832,30.892ZM50.62,23.1a4.673,4.673,0,1,1,4.673-4.673A4.674,4.674,0,0,1,50.62,23.1Z" transform="translate(1 -5.75)" fill="none" stroke="#002147" stroke-width="2"/>
</svg>
