<svg xmlns="http://www.w3.org/2000/svg" width="44.637" height="44.529" viewBox="0 0 44.637 44.529">
  <path id="Icon_map-gym" data-name="Icon map-gym" d="M15.9,40.095a.905.905,0,0,1-.045,1.273L13.9,43.194a.9.9,0,0,1-1.269-.046L1.257,30.891A.905.905,0,0,1,1.3,29.618l1.956-1.823a.9.9,0,0,1,1.269.046ZM30.409,17.032a.905.905,0,0,1-.046,1.273L18.072,29.787a.9.9,0,0,1-1.269-.046L13.87,26.575a.905.905,0,0,1,.046-1.273L26.2,13.82a.9.9,0,0,1,1.268.046l2.938,3.166ZM20.079,36.186a.906.906,0,0,1-.046,1.273l-1.956,1.825a.9.9,0,0,1-1.269-.046L5.442,26.982a.905.905,0,0,1,.045-1.273l1.952-1.824a.9.9,0,0,1,1.269.046ZM39.018,17.471a.905.905,0,0,1-.047,1.273L37.016,20.57a.9.9,0,0,1-1.27-.045L24.378,8.27A.9.9,0,0,1,24.423,7l1.96-1.83a.9.9,0,0,1,1.268.046L39.018,17.471Zm4.176-3.9a.907.907,0,0,1-.046,1.274L41.2,16.667a.9.9,0,0,1-1.268-.045L28.562,4.363a.907.907,0,0,1,.045-1.274L30.56,1.261a.895.895,0,0,1,1.267.045Z" transform="translate(0.093 -0.019)" fill="none" stroke="#002147" stroke-width="2"/>
</svg>
