<svg xmlns="http://www.w3.org/2000/svg" width="47" height="38" viewBox="0 0 47 38">
  <path id="Icon_awesome-ambulance" data-name="Icon awesome-ambulance" d="M43.875,24.75H42.75v-7.6a3.375,3.375,0,0,0-.991-2.384L34.734,7.741a3.375,3.375,0,0,0-2.384-.991h-3.1V3.375A3.376,3.376,0,0,0,25.875,0H3.375A3.376,3.376,0,0,0,0,3.375v22.5A3.376,3.376,0,0,0,3.375,29.25H4.5a6.75,6.75,0,0,0,13.5,0h9a6.75,6.75,0,0,0,13.5,0h3.375A1.128,1.128,0,0,0,45,28.125v-2.25A1.128,1.128,0,0,0,43.875,24.75ZM11.25,32.625a3.375,3.375,0,1,1,3.375-3.375A3.376,3.376,0,0,1,11.25,32.625ZM21.375,15.188a.564.564,0,0,1-.562.563H16.875v3.938a.564.564,0,0,1-.562.563H12.938a.564.564,0,0,1-.562-.562V15.75H8.438a.564.564,0,0,1-.562-.562V11.813a.564.564,0,0,1,.563-.562h3.938V7.313a.564.564,0,0,1,.563-.562h3.375a.564.564,0,0,1,.563.563V11.25h3.938a.564.564,0,0,1,.563.563ZM33.75,32.625a3.375,3.375,0,1,1,3.375-3.375A3.376,3.376,0,0,1,33.75,32.625ZM39.375,18H29.25V10.125h3.1l7.024,7.024Z" transform="translate(1 1)" fill="none" stroke="#002147" stroke-width="2"/>
</svg>
