<svg xmlns="http://www.w3.org/2000/svg" width="47.382" height="36.369" viewBox="0 0 47.382 36.369">
  <path id="Icon_map-clothing-store" data-name="Icon map-clothing-store" d="M47.146,12.292a1.086,1.086,0,0,1-.192.869l-5.448,8.107a1.212,1.212,0,0,1-.982.485,2.819,2.819,0,0,1-.494-.051l-4.367-1.072V39.838a.971.971,0,0,1-1.011,1.011H13.424a.971.971,0,0,1-1.011-1.011V20.632L8.491,21.714a.924.924,0,0,1-1.1-.435L1.981,13.192a1.019,1.019,0,0,1-.142-.849A.986.986,0,0,1,2.4,11.7L13.424,6.48h5.054a.966.966,0,0,1,1.011,1.011c0,2.082,2.921,3.558,5,3.558s5.1-1.466,5.1-3.558A.971.971,0,0,1,30.608,6.48h5.054L46.58,11.595a1.087,1.087,0,0,1,.566.7Z" transform="translate(-0.798 -5.48)" fill="none" stroke="#002147" stroke-width="2"/>
</svg>
