<svg xmlns="http://www.w3.org/2000/svg" width="44.224" height="35.895" viewBox="0 0 44.224 35.895">
  <path id="Icon_awesome-campground" data-name="Icon awesome-campground" d="M41.169,29.557H39.54L23.721,7.769l3.524-4.853a1.056,1.056,0,0,0-.234-1.475L25.3.2a1.055,1.055,0,0,0-1.475.234l-2.716,3.74L18.4.435A1.056,1.056,0,0,0,16.921.2l-1.707,1.24a1.055,1.055,0,0,0-.234,1.475L18.5,7.769,2.684,29.557H1.056A1.055,1.055,0,0,0,0,30.613v2.111a1.055,1.055,0,0,0,1.056,1.056H41.169a1.055,1.055,0,0,0,1.056-1.056V30.613A1.055,1.055,0,0,0,41.169,29.557ZM21.112,19l7.677,10.556H13.435Z" transform="translate(1 1.115)" fill="none" stroke="#002147" stroke-width="2"/>
</svg>
