<svg xmlns="http://www.w3.org/2000/svg" width="50.146" height="35.702" viewBox="0 0 50.146 35.702">
  <path id="Icon_awesome-wifi" data-name="Icon awesome-wifi" d="M47.763,11.494a34.977,34.977,0,0,0-47.38,0,1.2,1.2,0,0,0-.026,1.729l2.576,2.555a1.222,1.222,0,0,0,1.685.029,28.862,28.862,0,0,1,38.911,0,1.222,1.222,0,0,0,1.685-.029l2.576-2.555a1.2,1.2,0,0,0-.027-1.729ZM24.073,26.323a4.815,4.815,0,1,0,4.815,4.815A4.814,4.814,0,0,0,24.073,26.323Zm15.246-6.288a23.1,23.1,0,0,0-30.493,0,1.189,1.189,0,0,0-.043,1.742l2.591,2.557a1.228,1.228,0,0,0,1.659.06,16.943,16.943,0,0,1,22.078,0,1.227,1.227,0,0,0,1.659-.06l2.591-2.557A1.189,1.189,0,0,0,39.319,20.035Z" transform="translate(1 -1.25)" fill="none" stroke="#002147" stroke-width="2"/>
</svg>
