<svg xmlns="http://www.w3.org/2000/svg" width="43.072" height="43.15" viewBox="0 0 43.072 43.15">
  <path id="Icon_map-playground" data-name="Icon map-playground" d="M6.088,27.459a4.788,4.788,0,0,0,0-9.572,4.788,4.788,0,0,0,0,9.572Zm26.1,8.229a.473.473,0,0,1,.662.1l.862,1.225a.516.516,0,0,1-.1.684l-6.322,4.721a.479.479,0,0,1-.663-.105l-.859-1.225a.513.513,0,0,1,.1-.682l6.321-4.721ZM25.041,29.6,22.534,25.08l-1.316.988,2.507,4.545Zm-5.849-10.56L9.442,1.44l-1.865.013,10.288,18.59Zm9.18,9.313A5.663,5.663,0,0,1,30.9,27.333h8.929c1.763,0,2.679,1.773,2.679,3.575a2.364,2.364,0,0,1-2.679,2.675H31.8l-9.675,7.591c-3.4,2.517-5.461-.248-5.461-.248L9.087,33.132a4.644,4.644,0,0,1,.528-5.863L20.1,19.594a2.431,2.431,0,0,1,3.469.306,2.584,2.584,0,0,1-.309,3.568l-6.71,5.051,4.821,4.9Z" transform="translate(-0.44 -0.436)" fill="none" stroke="#002147" stroke-width="2"/>
</svg>
