<svg xmlns="http://www.w3.org/2000/svg" width="47.409" height="41.849" viewBox="0 0 47.409 41.849">
  <path id="Icon_map-food" data-name="Icon map-food" d="M45.795,13.394l-3.7,29.03H29.583L25.894,13.249H41.165L44.183,2.825l1.711.516L43,13.373l2.8.022ZM24.126,30.19s.468-3.765-6.019-3.765H7.778c-6.477,0-6.019,3.765-6.019,3.765H24.126ZM1.759,38.66S1.3,42.425,7.778,42.425H18.108c6.486,0,6.019-3.765,6.019-3.765Zm21.4-1.882a2.165,2.165,0,0,0,1.919-2.352,2.162,2.162,0,0,0-1.919-2.354H2.64A2.166,2.166,0,0,0,.72,34.426a2.169,2.169,0,0,0,1.92,2.352H23.156Z" transform="translate(0.28 -1.575)" fill="none" stroke="#002147" stroke-width="2"/>
</svg>
